<svg xmlns="http://www.w3.org/2000/svg" xmlns:xlink="http://www.w3.org/1999/xlink" width="36" height="36" viewBox="0 0 36 36">
  <defs>
    <clipPath id="clip-path">
      <rect id="長方形_48" data-name="長方形 48" width="36" height="36" transform="translate(0 -0.069)" fill="#222"/>
    </clipPath>
  </defs>
  <g id="icon-tell" transform="translate(0 0.069)" clip-path="url(#clip-path)">
    <path id="パス_10" data-name="パス 10" d="M8.483,14.8a22.946,22.946,0,0,0,9.982,9.982L21.8,21.45a1.506,1.506,0,0,1,1.545-.364,17.279,17.279,0,0,0,5.408.863,1.519,1.519,0,0,1,1.515,1.515v5.286a1.519,1.519,0,0,1-1.515,1.515A25.748,25.748,0,0,1,3,4.515,1.519,1.519,0,0,1,4.515,3h5.3a1.519,1.519,0,0,1,1.515,1.515,17.208,17.208,0,0,0,.863,5.408,1.52,1.52,0,0,1-.379,1.545Z" transform="translate(1.544 1.534)" fill="#222"/>
  </g>
</svg>
